<svg width="73" height="62" viewBox="0 0 73 62" fill="none" xmlns="http://www.w3.org/2000/svg">
<g id="Group 10">
<g id="Subtract">
<mask id="path-1-inside-1_51_2" fill="white">
<path fill-rule="evenodd" clip-rule="evenodd" d="M4.55602 27.583C1.51867 31.3797 0 35.6826 0 40.5339C0 46.1867 1.98271 51.038 5.90595 55.0456C9.82918 59.0954 14.5961 61.2469 20.249 61.5H37.3567L40.9254 61.1756L43.7759 60.5647L48.0517 59.3431L52.5311 56.8998L54.5672 55.4745L55.9827 54.4129H20.249C16.621 54.2019 13.5415 52.7676 11.0104 50.0678C8.47925 47.3679 7.21369 44.204 7.21369 40.5339C7.21369 37.0325 8.43707 33.9952 10.7994 31.4219C13.1618 28.8485 16.1148 27.3299 19.6584 26.908H21.8942C22.4426 26.908 22.7379 26.6549 22.7379 26.1487L23.0754 23.7441C23.4972 19.1881 25.4378 15.3492 28.8548 12.2697C32.2296 9.19018 36.2794 7.62932 40.8776 7.62932C45.4758 7.62932 49.4834 9.19018 52.9426 12.2697C56.4018 15.3492 58.3845 19.1881 58.8485 23.7441L59.1438 26.1487C59.1438 26.6549 59.3969 26.908 59.861 26.908H66.5092L65.5621 20.6573L65.3309 19.7787H65.3029C64.9358 18.2415 64.4502 16.7792 63.846 15.3925L63.7296 15.1599L63.742 15.1573C62.1234 11.546 59.6908 8.45507 56.444 5.89972C51.888 2.31397 46.6992 0.5 40.8776 0.5C34.9295 0.5 29.6141 2.35616 25.0159 6.06846C20.4177 9.78077 17.4225 14.5055 16.1148 20.2849C11.4322 21.3396 7.59336 23.7863 4.55602 27.583Z"/>
</mask>
<path fill-rule="evenodd" clip-rule="evenodd" d="M4.55602 27.583C1.51867 31.3797 0 35.6826 0 40.5339C0 46.1867 1.98271 51.038 5.90595 55.0456C9.82918 59.0954 14.5961 61.2469 20.249 61.5H37.3567L40.9254 61.1756L43.7759 60.5647L48.0517 59.3431L52.5311 56.8998L54.5672 55.4745L55.9827 54.4129H20.249C16.621 54.2019 13.5415 52.7676 11.0104 50.0678C8.47925 47.3679 7.21369 44.204 7.21369 40.5339C7.21369 37.0325 8.43707 33.9952 10.7994 31.4219C13.1618 28.8485 16.1148 27.3299 19.6584 26.908H21.8942C22.4426 26.908 22.7379 26.6549 22.7379 26.1487L23.0754 23.7441C23.4972 19.1881 25.4378 15.3492 28.8548 12.2697C32.2296 9.19018 36.2794 7.62932 40.8776 7.62932C45.4758 7.62932 49.4834 9.19018 52.9426 12.2697C56.4018 15.3492 58.3845 19.1881 58.8485 23.7441L59.1438 26.1487C59.1438 26.6549 59.3969 26.908 59.861 26.908H66.5092L65.5621 20.6573L65.3309 19.7787H65.3029C64.9358 18.2415 64.4502 16.7792 63.846 15.3925L63.7296 15.1599L63.742 15.1573C62.1234 11.546 59.6908 8.45507 56.444 5.89972C51.888 2.31397 46.6992 0.5 40.8776 0.5C34.9295 0.5 29.6141 2.35616 25.0159 6.06846C20.4177 9.78077 17.4225 14.5055 16.1148 20.2849C11.4322 21.3396 7.59336 23.7863 4.55602 27.583Z" fill="white"/>
<path d="M4.55602 27.583L3.77515 26.9583L4.55602 27.583ZM5.90595 55.0456L6.6242 54.3498L6.62054 54.3461L5.90595 55.0456ZM20.249 61.5L20.2042 62.499L20.2266 62.5H20.249V61.5ZM37.3567 61.5V62.5H37.402L37.4472 62.4959L37.3567 61.5ZM40.9254 61.1756L41.0159 62.1715L41.076 62.166L41.1349 62.1534L40.9254 61.1756ZM43.7759 60.5647L43.9855 61.5425L44.0183 61.5355L44.0507 61.5263L43.7759 60.5647ZM48.0517 59.3431L48.3265 60.3046L48.4332 60.2741L48.5306 60.221L48.0517 59.3431ZM52.5311 56.8998L53.01 57.7777L53.0589 57.751L53.1046 57.719L52.5311 56.8998ZM54.5672 55.4745L55.1407 56.2937L55.1541 56.2843L55.1672 56.2745L54.5672 55.4745ZM55.9827 54.4129L56.5828 55.2129L58.9827 53.4129H55.9827V54.4129ZM20.249 54.4129L20.1909 55.4112L20.2199 55.4129H20.249V54.4129ZM11.0104 50.0678L11.7399 49.3838H11.7399L11.0104 50.0678ZM10.7994 31.4219L10.0628 30.7456H10.0628L10.7994 31.4219ZM19.6584 26.908V25.908H19.5991L19.5402 25.915L19.6584 26.908ZM22.7379 26.1487L21.7476 26.0097L21.7379 26.0789V26.1487H22.7379ZM23.0754 23.7441L24.0657 23.8831L24.0689 23.8598L24.0711 23.8363L23.0754 23.7441ZM28.8548 12.2697L29.5243 13.0126L29.5288 13.0084L28.8548 12.2697ZM52.9426 12.2697L52.2777 13.0166L52.9426 12.2697ZM58.8485 23.7441L57.8537 23.8454L57.8547 23.8557L57.856 23.866L58.8485 23.7441ZM59.1438 26.1487H60.1438V26.0875L60.1364 26.0268L59.1438 26.1487ZM66.5092 26.908V27.908H67.6721L67.4979 26.7582L66.5092 26.908ZM65.5621 20.6573L66.5508 20.5075L66.5428 20.4546L66.5292 20.4028L65.5621 20.6573ZM65.3309 19.7787L66.298 19.5242L66.1018 18.7787H65.3309V19.7787ZM65.3029 19.7787L64.3302 20.011L64.5136 20.7787H65.3029V19.7787ZM63.846 15.3925L64.7627 14.9931L64.7522 14.9689L64.7404 14.9453L63.846 15.3925ZM63.7296 15.1599L63.5247 14.1811L62.2551 14.4469L62.8352 15.6071L63.7296 15.1599ZM63.742 15.1573L63.9469 16.1361L65.1625 15.8816L64.6545 14.7483L63.742 15.1573ZM56.444 5.89972L57.0624 5.11391V5.11391L56.444 5.89972ZM25.0159 6.06846L24.3877 5.29039H24.3877L25.0159 6.06846ZM16.1148 20.2849L16.3345 21.2605L16.9507 21.1217L17.0901 20.5056L16.1148 20.2849ZM1 40.5339C1 35.9113 2.44037 31.8283 5.33688 28.2077L3.77515 26.9583C0.596973 30.931 -1 35.4539 -1 40.5339H1ZM6.62054 54.3461C2.88076 50.5259 1 45.9259 1 40.5339H-1C-1 46.4475 1.08466 51.5502 5.19136 55.7452L6.62054 54.3461ZM20.2937 60.501C14.896 60.2593 10.37 58.2164 6.62419 54.3498L5.18771 55.7414C9.28841 59.9744 14.2962 62.2345 20.2042 62.499L20.2937 60.501ZM37.3567 60.5H20.249V62.5H37.3567V60.5ZM37.4472 62.4959L41.0159 62.1715L40.8349 60.1797L37.2661 60.5041L37.4472 62.4959ZM41.1349 62.1534L43.9855 61.5425L43.5664 59.5869L40.7159 60.1978L41.1349 62.1534ZM44.0507 61.5263L48.3265 60.3046L47.777 58.3816L43.5012 59.6032L44.0507 61.5263ZM48.5306 60.221L53.01 57.7777L52.0523 56.0219L47.5729 58.4652L48.5306 60.221ZM53.1046 57.719L55.1407 56.2937L53.9938 54.6553L51.9577 56.0805L53.1046 57.719ZM55.1672 56.2745L56.5828 55.2129L55.3827 53.6129L53.9672 54.6745L55.1672 56.2745ZM20.249 55.4129H55.9827V53.4129H20.249V55.4129ZM10.2808 50.7517C12.9864 53.6377 16.3059 55.1853 20.1909 55.4112L20.307 53.4145C16.9361 53.2186 14.0966 51.8976 11.7399 49.3838L10.2808 50.7517ZM6.21369 40.5339C6.21369 44.462 7.57869 47.8694 10.2808 50.7517L11.7399 49.3838C9.37981 46.8664 8.21369 43.946 8.21369 40.5339H6.21369ZM10.0628 30.7456C7.53647 33.4975 6.21369 36.7741 6.21369 40.5339H8.21369C8.21369 37.2909 9.33767 34.4928 11.5361 32.0981L10.0628 30.7456ZM19.5402 25.915C15.7608 26.365 12.5879 27.995 10.0628 30.7456L11.5361 32.0981C13.7357 29.7021 16.4688 28.2948 19.7766 27.901L19.5402 25.915ZM21.8942 25.908H19.6584V27.908H21.8942V25.908ZM21.7379 26.1487C21.7379 26.18 21.7331 26.1656 21.749 26.1241C21.7668 26.0774 21.802 26.02 21.8573 25.9708C21.9658 25.8743 22.0327 25.908 21.8942 25.908V27.908C22.3041 27.908 22.7928 27.8151 23.1861 27.4656C23.6004 27.0973 23.7379 26.5985 23.7379 26.1487H21.7379ZM22.0851 23.6051L21.7476 26.0097L23.7282 26.2877L24.0657 23.8831L22.0851 23.6051ZM28.1853 11.5269C24.5839 14.7725 22.5249 18.8427 22.0796 23.6519L24.0711 23.8363C24.4695 19.5335 26.2916 15.9259 29.5242 13.0125L28.1853 11.5269ZM40.8776 6.62932C36.0323 6.62932 31.7415 8.28183 28.1807 11.531L29.5288 13.0084C32.7177 10.0985 36.5265 8.62932 40.8776 8.62932V6.62932ZM53.6075 11.5228C49.9701 8.28457 45.7274 6.62932 40.8776 6.62932V8.62932C45.2242 8.62932 48.9967 10.0958 52.2777 13.0166L53.6075 11.5228ZM59.8434 23.6428C59.3535 18.8333 57.2501 14.7656 53.6075 11.5228L52.2777 13.0166C55.5535 15.9329 57.4155 19.5429 57.8537 23.8454L59.8434 23.6428ZM60.1364 26.0268L59.8411 23.6222L57.856 23.866L58.1513 26.2706L60.1364 26.0268ZM59.861 25.908C59.8057 25.908 59.9257 25.8961 60.0504 26.0263C60.1682 26.1492 60.1438 26.2475 60.1438 26.1487H58.1438C58.1438 26.5561 58.246 27.0341 58.6064 27.4101C58.9737 27.7933 59.4523 27.908 59.861 27.908V25.908ZM66.5092 25.908H59.861V27.908H66.5092V25.908ZM67.4979 26.7582L66.5508 20.5075L64.5734 20.8071L65.5205 27.0578L67.4979 26.7582ZM66.5292 20.4028L66.298 19.5242L64.3638 20.0332L64.5951 20.9118L66.5292 20.4028ZM65.3029 20.7787H65.3309V18.7787H65.3029V20.7787ZM62.9292 15.792C63.5088 17.1222 63.9762 18.5284 64.3302 20.011L66.2755 19.5464C65.8954 17.9546 65.3915 16.4361 64.7627 14.9931L62.9292 15.792ZM64.7404 14.9453L64.6241 14.7127L62.8352 15.6071L62.9515 15.8397L64.7404 14.9453ZM63.9345 16.1386L63.9469 16.1361L63.5371 14.1785L63.5247 14.1811L63.9345 16.1386ZM55.8255 6.68554C58.9504 9.14493 61.2796 12.1084 62.8295 15.5663L64.6545 14.7483C62.9672 10.9836 60.4311 7.76521 57.0624 5.11391L55.8255 6.68554ZM40.8776 1.5C46.4733 1.5 51.4445 3.23756 55.8255 6.68554L57.0624 5.11391C52.3314 1.39038 46.9251 -0.5 40.8776 -0.5V1.5ZM25.6441 6.84654C30.0618 3.27995 35.1547 1.5 40.8776 1.5V-0.5C34.7043 -0.5 29.1664 1.43236 24.3877 5.29039L25.6441 6.84654ZM17.0901 20.5056C18.347 14.9509 21.2169 10.4208 25.6441 6.84654L24.3877 5.29039C19.6185 9.14079 16.498 14.0601 15.1395 20.0642L17.0901 20.5056ZM5.33688 28.2077C8.23727 24.5822 11.8809 22.2636 16.3345 21.2605L15.8951 19.3094C10.9836 20.4155 6.94945 22.9904 3.77515 26.9583L5.33688 28.2077Z" fill="white" mask="url(#path-1-inside-1_51_2)"/>
</g>
<g id="&#240;&#159;&#166;&#134; icon &#34;moon waxing crescent 3&#34;">
<path id="Vector" d="M57.5724 56.9762C53.4621 59.3759 49.0356 60.6954 44.2667 60.9531C45.9124 59.8041 47.3872 58.506 48.7141 57.0079C50.4191 55.083 51.7473 53.1487 52.7189 51.15C53.6836 49.1655 54.4808 46.9647 55.0848 44.5489C55.6866 42.1417 56.0707 39.8941 56.2629 37.7794C56.4544 35.6738 56.536 33.4089 56.536 30.9594C56.536 24.9357 55.4405 19.1271 53.2208 13.6188C51.1876 8.5734 48.1203 4.36928 44.0214 1.03524C48.8874 1.26418 53.4158 2.60712 57.5732 5.02421C62.159 7.69036 65.7825 11.3135 68.4762 15.9276C71.1674 20.5372 72.5 25.5445 72.5 30.9865C72.5 36.4268 71.1411 41.4351 68.4752 46.0472C65.8092 50.6594 62.1863 54.2826 57.5724 56.9762Z" fill="white" stroke="white"/>
</g>
</g>
</svg>
