<svg width="30" height="30" viewBox="0 0 30 30" fill="none" xmlns="http://www.w3.org/2000/svg">
<g id="radix-icons:half-2">
<path id="Vector" fill-rule="evenodd" clip-rule="evenodd" d="M14.9999 1.75391C11.4868 1.75391 8.11768 3.14946 5.63357 5.63357C3.14946 8.11768 1.75391 11.4868 1.75391 14.9999C1.75391 18.513 3.14946 21.8821 5.63357 24.3662C8.11768 26.8504 11.4868 28.2459 14.9999 28.2459C18.513 28.2459 21.8821 26.8504 24.3662 24.3662C26.8504 21.8821 28.2459 18.513 28.2459 14.9999C28.2459 11.4868 26.8504 8.11768 24.3662 5.63357C21.8821 3.14946 18.513 1.75391 14.9999 1.75391ZM14.9999 3.65391C11.9908 3.65391 9.10486 4.84928 6.97707 6.97707C4.84928 9.10486 3.65391 11.9908 3.65391 14.9999C3.65391 18.0091 4.84928 20.895 6.97707 23.0227C9.10486 25.1505 11.9908 26.3459 14.9999 26.3459V3.65391Z" fill="black"/>
</g>
</svg>
