<svg width="30" height="30" viewBox="0 0 30 30" fill="none" xmlns="http://www.w3.org/2000/svg">
<g id="wi:moon-alt-waning-crescent-6">
<path id="Vector" d="M3.74023 14.4399C3.74023 12.9199 4.04023 11.4599 4.63023 10.0699C5.22023 8.67994 6.03023 7.48994 7.03023 6.47994C8.03023 5.46994 9.23023 4.66994 10.6202 4.07994C12.0102 3.48994 13.4602 3.18994 14.9902 3.18994C16.5202 3.18994 17.9702 3.48994 19.3602 4.07994C20.7502 4.66994 21.9502 5.47994 22.9602 6.47994C23.9702 7.47994 24.7702 8.67994 25.3602 10.0699C25.9502 11.4599 26.2502 12.9099 26.2502 14.4399C26.2502 15.9699 25.9502 17.4199 25.3602 18.8099C24.7702 20.1999 23.9602 21.3999 22.9602 22.4099C21.9602 23.4199 20.7602 24.2199 19.3602 24.8099C17.9602 25.3999 16.5102 25.6999 14.9902 25.6999C13.4702 25.6999 12.0102 25.3999 10.6202 24.8099C9.23023 24.2199 8.04023 23.4099 7.03023 22.4099C6.02023 21.4099 5.22023 20.2099 4.63023 18.8099C4.04023 17.4099 3.74023 15.9699 3.74023 14.4399ZM4.94023 14.4399C4.94023 16.9199 5.74023 19.0999 7.35023 20.9699C8.96023 22.8399 10.9702 23.9799 13.3802 24.3799C12.3702 23.8799 11.5202 23.2799 10.8202 22.5599C10.1202 21.8399 9.57023 21.0599 9.19023 20.1899C8.81023 19.3199 8.53023 18.4199 8.36023 17.4899C8.19023 16.5599 8.10023 15.5399 8.10023 14.4299C8.10023 12.3199 8.60023 10.3699 9.59023 8.58994C10.5802 6.80994 11.9602 5.42994 13.7102 4.46994C12.0802 4.67994 10.6002 5.23994 9.26023 6.16994C7.92023 7.09994 6.87023 8.29994 6.10023 9.75994C5.33023 11.2199 4.94023 12.7699 4.94023 14.4399Z" fill="black"/>
</g>
</svg>
