<svg width="30" height="30" viewBox="0 0 30 30" fill="none" xmlns="http://www.w3.org/2000/svg">
<g id="wi:moon-alt-waning-gibbous-2">
<path id="Vector" d="M3.74023 14.4399C3.74023 12.9199 4.04023 11.4599 4.63023 10.0699C5.22023 8.67994 6.03023 7.48994 7.03023 6.47994C8.03023 5.46994 9.23023 4.66994 10.6202 4.07994C12.0102 3.48994 13.4602 3.18994 14.9902 3.18994C16.5202 3.18994 17.9702 3.48994 19.3602 4.07994C20.7502 4.66994 21.9502 5.47994 22.9602 6.47994C23.9702 7.47994 24.7702 8.67994 25.3602 10.0699C25.9502 11.4599 26.2502 12.9099 26.2502 14.4399C26.2502 15.9699 25.9502 17.4199 25.3602 18.8099C24.7702 20.1999 23.9602 21.3999 22.9602 22.4099C21.9602 23.4199 20.7602 24.2199 19.3602 24.8099C17.9602 25.3999 16.5102 25.6999 14.9902 25.6999C13.4702 25.6999 12.0102 25.3999 10.6202 24.8099C9.23023 24.2199 8.04023 23.4099 7.03023 22.4099C6.02023 21.4099 5.22023 20.2099 4.63023 18.8099C4.04023 17.4099 3.74023 15.9699 3.74023 14.4399ZM4.94023 14.4399C4.94023 15.8099 5.21023 17.1099 5.74023 18.3499C6.27023 19.5899 6.99023 20.6599 7.89023 21.5599C8.79023 22.4599 9.86023 23.1699 11.1002 23.7099C12.3402 24.2499 13.6402 24.5099 15.0002 24.5099C15.3602 24.5099 15.7602 24.4899 16.2002 24.4399C17.1302 23.8699 17.9102 23.1999 18.5502 22.4099C19.1902 21.6199 19.6702 20.7699 19.9802 19.8499C20.2902 18.9299 20.5102 18.0499 20.6302 17.1999C20.7502 16.3499 20.8102 15.4299 20.8102 14.4499C20.8102 13.1999 20.6602 11.9899 20.3502 10.8099C20.0402 9.62994 19.5102 8.46994 18.7602 7.31994C18.0102 6.16994 17.0702 5.20994 15.9502 4.42994C15.5402 4.40994 15.2202 4.39994 15.0002 4.39994C13.6402 4.39994 12.3402 4.66994 11.1002 5.19994C9.86023 5.72994 8.79023 6.43994 7.89023 7.33994C6.99023 8.23994 6.28023 9.30994 5.74023 10.5499C5.20023 11.7899 4.94023 13.0899 4.94023 14.4399Z" fill="black"/>
</g>
</svg>
