<svg width="30" height="30" viewBox="0 0 30 30" fill="none" xmlns="http://www.w3.org/2000/svg">
<g id="wi:moon-alt-waning-gibbous-1">
<path id="Vector" d="M3.74023 14.4299C3.74023 12.3899 4.25023 10.5099 5.26023 8.77994C6.27023 7.04994 7.64023 5.69994 9.37023 4.68994C11.1002 3.67994 12.9802 3.18994 15.0202 3.18994C17.0602 3.18994 18.9402 3.68994 20.6702 4.68994C22.4002 5.68994 23.7602 7.04994 24.7602 8.77994C25.7602 10.5099 26.2602 12.3899 26.2602 14.4299C26.2602 16.4699 25.7602 18.3599 24.7602 20.0799C23.7602 21.7999 22.4002 23.1799 20.6702 24.1899C18.9402 25.1999 17.0602 25.7099 15.0202 25.7099C12.9802 25.7099 11.0902 25.1999 9.37023 24.1899C7.65023 23.1799 6.27023 21.8099 5.26023 20.0799C4.25023 18.3499 3.74023 16.4699 3.74023 14.4299ZM4.94023 14.4299C4.94023 15.7899 5.21023 17.0899 5.75023 18.3299C6.56023 20.1899 7.00023 20.6499 7.90023 21.5499C8.80023 22.4499 9.87023 23.1699 11.1202 23.6999C12.3702 24.2299 13.6702 24.5099 15.0202 24.5099C15.8802 24.5099 16.6402 24.4199 17.3102 24.2299C18.1402 23.7899 18.8602 23.2699 19.4802 22.6599C20.1002 22.0499 20.5802 21.4399 20.9402 20.8099C21.3002 20.1799 21.5802 19.4799 21.8002 18.7199C22.0202 17.9599 22.1602 17.2399 22.2302 16.5799C22.3002 15.9199 22.3302 15.2099 22.3302 14.4299C22.3302 13.4999 22.2302 12.5899 22.0302 11.6899C21.8302 10.7899 21.5202 9.89994 21.1002 9.01994C20.6802 8.13994 20.1102 7.29994 19.3802 6.51994C18.6502 5.73994 17.8102 5.06994 16.8402 4.52994C16.4402 4.43994 15.8302 4.39994 15.0202 4.39994C13.6602 4.39994 12.3602 4.65994 11.1202 5.18994C9.88023 5.71994 8.80023 6.42994 7.90023 7.31994C7.00023 8.20994 6.28023 9.28994 5.75023 10.5199C5.22023 11.7499 4.94023 13.0599 4.94023 14.4299Z" fill="black"/>
</g>
</svg>
