<svg width="30" height="30" viewBox="0 0 30 30" fill="none" xmlns="http://www.w3.org/2000/svg">
<g id="wi:moon-alt-waning-crescent-3">
<path id="Vector" d="M3.74023 14.4399C3.74023 12.9199 4.04023 11.4599 4.63023 10.0699C5.22023 8.67994 6.03023 7.48994 7.03023 6.47994C8.03023 5.46994 9.23023 4.66994 10.6202 4.07994C12.0102 3.48994 13.4602 3.18994 14.9902 3.18994C16.5202 3.18994 17.9702 3.48994 19.3602 4.07994C20.7502 4.66994 21.9502 5.47994 22.9602 6.47994C23.9702 7.47994 24.7702 8.67994 25.3602 10.0699C25.9502 11.4599 26.2502 12.9099 26.2502 14.4399C26.2502 15.9699 25.9502 17.4199 25.3602 18.8099C24.7702 20.1999 23.9602 21.3999 22.9602 22.4099C21.9602 23.4199 20.7602 24.2199 19.3602 24.8099C17.9602 25.3999 16.5102 25.6999 14.9902 25.6999C13.4702 25.6999 12.0102 25.3999 10.6202 24.8099C9.23023 24.2199 8.04023 23.4099 7.03023 22.4099C6.02023 21.4099 5.22023 20.2099 4.63023 18.8099C4.04023 17.4099 3.74023 15.9699 3.74023 14.4399ZM4.94023 14.4399C4.94023 15.7799 5.20023 17.0599 5.71023 18.2899C6.22023 19.5199 6.92023 20.5799 7.79023 21.4799C8.66023 22.3799 9.71023 23.0999 10.9202 23.6399C12.1302 24.1799 13.4002 24.4699 14.7302 24.5099C13.0202 22.1899 12.1702 18.8299 12.1702 14.4499C12.1702 12.5799 12.4002 10.7799 12.8602 9.03994C13.3202 7.29994 13.9702 5.74994 14.8102 4.39994C13.0102 4.42994 11.3602 4.89994 9.85023 5.80994C8.34023 6.71994 7.15023 7.93994 6.27023 9.45994C5.39023 10.9799 4.94023 12.6499 4.94023 14.4399Z" fill="black"/>
</g>
</svg>
