<svg width="30" height="30" viewBox="0 0 30 30" fill="none" xmlns="http://www.w3.org/2000/svg">
<g id="wi:moon-new">
<path id="Vector" d="M3.74023 14.44C3.74023 12.91 4.04023 11.44 4.63023 10.05C5.22023 8.66003 6.03023 7.46003 7.03023 6.45003C8.03023 5.44003 9.23023 4.64003 10.6302 4.05003C12.0302 3.46003 13.4802 3.16003 15.0002 3.16003C16.5302 3.16003 18.0002 3.46003 19.3902 4.05003C20.7802 4.64003 21.9802 5.45003 22.9902 6.45003C24.0002 7.45003 24.8002 8.65003 25.3902 10.05C25.9802 11.45 26.2802 12.9 26.2802 14.44C26.2802 15.96 25.9802 17.42 25.3902 18.81C24.8002 20.2 23.9902 21.4 22.9902 22.41C21.9902 23.42 20.7902 24.22 19.3902 24.81C17.9902 25.4 16.5402 25.7 15.0002 25.7C13.4802 25.7 12.0202 25.4 10.6302 24.81C9.24023 24.22 8.04023 23.41 7.03023 22.41C6.02023 21.41 5.22023 20.21 4.63023 18.81C4.04023 17.41 3.74023 15.97 3.74023 14.44ZM4.94023 14.44C4.94023 15.8 5.21023 17.1 5.74023 18.34C6.27023 19.58 6.99023 20.66 7.89023 21.56C8.79023 22.46 9.86023 23.17 11.1102 23.71C12.3602 24.25 13.6602 24.51 15.0102 24.51C16.3802 24.51 17.6802 24.24 18.9202 23.71C20.1602 23.18 21.2302 22.46 22.1402 21.56C23.0502 20.66 23.7602 19.59 24.2902 18.34C24.8202 17.09 25.0902 15.79 25.0902 14.44C25.0902 12.62 24.6402 10.94 23.7402 9.39003C22.8402 7.84003 21.6102 6.62003 20.0602 5.71003C18.5102 4.80003 16.8302 4.36003 15.0102 4.36003C13.6502 4.36003 12.3502 4.63003 11.1102 5.16003C9.87023 5.69003 8.79023 6.41003 7.89023 7.32003C6.99023 8.23003 6.28023 9.30003 5.74023 10.54C5.20023 11.78 4.94023 13.08 4.94023 14.44Z" fill="black"/>
</g>
</svg>
