<svg width="30" height="30" viewBox="0 0 30 30" fill="none" xmlns="http://www.w3.org/2000/svg">
<g id="wi:moon-alt-waning-crescent-5">
<path id="Vector" d="M3.74023 14.4399C3.74023 12.9199 4.04023 11.4599 4.63023 10.0699C5.22023 8.67994 6.03023 7.48994 7.03023 6.47994C8.03023 5.46994 9.23023 4.66994 10.6202 4.07994C12.0102 3.48994 13.4602 3.18994 14.9902 3.18994C16.5202 3.18994 17.9702 3.48994 19.3602 4.07994C20.7502 4.66994 21.9502 5.47994 22.9602 6.47994C23.9702 7.47994 24.7702 8.67994 25.3602 10.0699C25.9502 11.4599 26.2502 12.9099 26.2502 14.4399C26.2502 15.9699 25.9502 17.4199 25.3602 18.8099C24.7702 20.1999 23.9602 21.3999 22.9602 22.4099C21.9602 23.4199 20.7602 24.2199 19.3602 24.8099C17.9602 25.3999 16.5102 25.6999 14.9902 25.6999C13.4702 25.6999 12.0102 25.3999 10.6202 24.8099C9.23023 24.2199 8.04023 23.4099 7.03023 22.4099C6.02023 21.4099 5.22023 20.2099 4.63023 18.8099C4.04023 17.4099 3.74023 15.9699 3.74023 14.4399ZM4.94023 14.4399C4.94023 15.7099 5.17023 16.9299 5.64023 18.0999C6.11023 19.2699 6.73023 20.2999 7.53023 21.1799C8.33023 22.0599 9.28023 22.7899 10.3802 23.3699C11.4802 23.9499 12.6602 24.3099 13.9002 24.4499C12.1502 23.4099 10.9202 22.0599 10.2002 20.3799C9.48023 18.6999 9.12023 16.7199 9.12023 14.4499C9.12023 12.3799 9.56023 10.4499 10.4402 8.66994C11.3202 6.88994 12.5402 5.46994 14.1002 4.42994C12.8402 4.53994 11.6402 4.87994 10.5102 5.44994C9.38023 6.01994 8.41023 6.74994 7.59023 7.63994C6.77023 8.52994 6.13023 9.55994 5.66023 10.7499C5.19023 11.9399 4.94023 13.1499 4.94023 14.4399Z" fill="black"/>
</g>
</svg>
